<?xml version="1.0" encoding="UTF-8" standalone="no"?>
<!-- Created with Inkscape (http://www.inkscape.org/) -->

<svg
   xmlns:dc="http://purl.org/dc/elements/1.1/"
   xmlns:cc="http://creativecommons.org/ns#"
   xmlns:rdf="http://www.w3.org/1999/02/22-rdf-syntax-ns#"
   xmlns:svg="http://www.w3.org/2000/svg"
   xmlns="http://www.w3.org/2000/svg"
   xmlns:sodipodi="http://sodipodi.sourceforge.net/DTD/sodipodi-0.dtd"
   xmlns:inkscape="http://www.inkscape.org/namespaces/inkscape"
   width="95.802872mm"
   height="23.736788mm"
   viewBox="0 0 95.802872 23.736788"
   version="1.1"
   id="svg8"
   inkscape:version="0.92.5 (2060ec1f9f, 2020-04-08)"
   sodipodi:docname="logo.svg">
  <defs
     id="defs2">
    <inkscape:perspective
       sodipodi:type="inkscape:persp3d"
       inkscape:vp_x="0 : 148.5 : 1"
       inkscape:vp_y="0 : 999.99997 : 0"
       inkscape:vp_z="210 : 148.5 : 1"
       inkscape:persp3d-origin="105 : 98.999997 : 1"
       id="perspective10" />
  </defs>
  <sodipodi:namedview
     id="base"
     pagecolor="#ffffff"
     bordercolor="#666666"
     borderopacity="1.0"
     inkscape:pageopacity="0.0"
     inkscape:pageshadow="2"
     inkscape:zoom="2.5803855"
     inkscape:cx="93.506383"
     inkscape:cy="20.805589"
     inkscape:document-units="mm"
     inkscape:current-layer="text52"
     showgrid="false"
     inkscape:window-width="1876"
     inkscape:window-height="1051"
     inkscape:window-x="889"
     inkscape:window-y="2160"
     inkscape:window-maximized="1" />
  <metadata
     id="metadata5">
    <rdf:RDF>
      <cc:Work
         rdf:about="">
        <dc:format>image/svg+xml</dc:format>
        <dc:type
           rdf:resource="http://purl.org/dc/dcmitype/StillImage" />
        <dc:title />
      </cc:Work>
    </rdf:RDF>
  </metadata>
  <g
     inkscape:label="Layer 1"
     inkscape:groupmode="layer"
     id="layer1"
     transform="translate(-54.531638,-88.448638)">
    <g
       aria-label="Elena's boho"
       style="font-style:normal;font-weight:normal;font-size:10.58333302px;line-height:1.25;font-family:sans-serif;letter-spacing:0px;word-spacing:0px;fill:#000000;fill-opacity:1;stroke:none;stroke-width:0.26458332"
       id="text52">
      <path
         d="m 67.100731,98.467527 q 0.08819,1.481667 -2.240139,1.781523 -2.204861,0.28223 -4.621389,-0.634995 -0.970138,0.758475 -2.081388,2.204865 -1.499306,2.62819 -0.423334,5.3975 0.740834,1.60514 2.363611,2.38125 1.516945,0.70555 3.386667,0.51152 1.869722,-0.19402 3.421945,-1.21708 1.658055,-1.11125 2.451805,-2.87514 0.352778,0.93486 -0.03528,2.11667 -0.776111,2.38125 -4.480277,3.61597 -3.739445,1.14653 -6.773334,-0.72319 -1.499306,-0.93486 -2.275417,-2.09903 -0.635,-0.79375 -1.005416,-1.9932 -0.740834,-2.39889 0.652639,-4.49791 1.446388,-2.27542 3.404305,-3.492503 -1.305278,-0.811389 -1.728611,-1.834444 -0.47625,-0.758473 -0.335139,-1.975556 0.211667,-1.710972 1.852084,-2.963333 -0.987778,-0.582084 -1.217084,-1.375834 -0.176389,-0.635 0.141111,-1.164167 0.370417,-0.617361 1.322917,-0.934861 1.252361,-0.388055 2.963333,0.08819 l -0.05292,0.05292 q -0.846667,-0.141111 -1.728611,-0.05292 -1.781528,0.15875 -2.028473,1.252361 -0.246944,1.023055 1.199445,1.675694 2.522361,-1.993194 5.573889,-1.675694 1.446389,0.15875 1.975555,0.846667 0.511528,0.652638 -0.211666,1.27 -0.811389,0.705555 -2.557639,0.970139 -2.010834,0.282222 -3.880556,-0.335139 l -0.582083,-0.194028 q -1.27,1.534583 -1.11125,3.439583 0.194028,1.287639 1.781528,2.240139 1.781527,-0.723194 3.069166,-0.846666 3.563056,-0.352778 3.81,1.040694 z m -4.621389,-6.103056 q 1.11125,0 1.940278,-0.282222 1.075972,-0.352778 1.075972,-1.023056 0.08819,-0.723194 -1.940277,-0.405694 -1.940278,0.299861 -2.839862,0.934861 -0.282222,0.176389 -0.582083,0.440972 1.446389,0.440973 2.345972,0.335139 z m 1.464028,6.808612 q 1.799167,-0.08819 1.74625,-0.599723 -0.05292,-0.194027 -0.687916,-0.299861 -0.599723,-0.105833 -1.128889,-0.07055 -1.287639,0.105833 -2.38125,0.635 1.217083,0.423333 2.451805,0.335139 z"
         style="font-style:normal;font-variant:normal;font-weight:normal;font-stretch:normal;font-size:17.63888931px;line-height:2;font-family:'Rupster Script Free';-inkscape-font-specification:'Rupster Script Free, Normal';font-variant-ligatures:normal;font-variant-caps:normal;font-variant-numeric:normal;font-feature-settings:normal;text-align:start;writing-mode:lr-tb;direction:rtl;text-anchor:start;fill:#000000;fill-opacity:0.81818183;stroke-width:0.26458332"
         id="path815" />
      <path
         d="m 67.576975,104.83517 q 0.264583,0.0353 1.322917,-1.39348 -0.934862,-6.420552 1.411111,-12.029719 1.375833,-3.280833 2.804583,-2.681111 1.234722,0.529167 1.42875,2.681111 0.15875,1.622778 -0.758472,4.427361 -1.799167,4.586108 -3.474861,6.685138 0.03528,3.29847 0.970139,4.88597 1.040694,1.78153 2.963333,0.77611 0.758472,-0.38805 1.199444,-1.35819 l 0.229306,0.10583 q -0.458611,1.65806 -1.799167,2.24014 -1.005416,0.44098 -1.869722,0.15875 -2.169583,-0.75847 -2.998611,-5.34458 -0.811389,0.77611 -1.252361,1.16417 z m 3.139722,-7.355421 q -0.335139,2.028472 -0.388055,3.792361 0.864305,-1.516944 1.252361,-2.610555 0.917222,-2.592917 1.499305,-5.274028 0.282223,-1.499306 0.01764,-2.416528 -0.105833,-0.370417 -0.246944,-0.47625 -0.15875,-0.123472 -0.282222,0.07056 -0.846667,0.899583 -1.852084,6.914444 z"
         style="font-style:normal;font-variant:normal;font-weight:normal;font-stretch:normal;font-size:17.63888931px;line-height:2;font-family:'Rupster Script Free';-inkscape-font-specification:'Rupster Script Free, Normal';font-variant-ligatures:normal;font-variant-caps:normal;font-variant-numeric:normal;font-feature-settings:normal;text-align:start;writing-mode:lr-tb;direction:rtl;text-anchor:start;fill:#000000;fill-opacity:0.81818183;stroke-width:0.26458332"
         id="path817" />
      <path
         d="m 75.97306,102.20697 q 1.058333,0.0529 2.38125,-2.04611 0.582083,-0.899583 0.599722,-1.534583 0.03528,-0.723194 -0.705555,-0.864306 -0.987778,-0.194027 -1.834445,2.169584 -0.3175,0.846665 -0.440972,1.605135 -0.141111,0.74084 0,0.67028 z m 0.03528,0.61736 q -0.08819,1.41111 1.023055,2.38125 1.27,1.09361 2.628195,-0.9525 0.105833,-0.15875 0.01764,-0.82903 l -0.07056,-0.61736 q 1.023056,-0.10583 1.305278,0.52917 0,0.44097 -0.493889,1.25236 -0.811389,1.34056 -2.398889,1.62278 -2.06375,0.35278 -3.263195,-1.51695 -0.970138,-1.4993 -0.864305,-3.0868 0.194028,-2.892779 2.522361,-4.180417 0.970139,-0.529167 1.869722,-0.405695 0.934861,0.123472 1.375834,0.9525 1.075972,1.993195 -0.9525,3.721802 -0.740834,0.635 -1.605139,0.97014 -0.811389,0.33514 -1.093611,0.15875 z"
         style="font-style:normal;font-variant:normal;font-weight:normal;font-stretch:normal;font-size:17.63888931px;line-height:2;font-family:'Rupster Script Free';-inkscape-font-specification:'Rupster Script Free, Normal';font-variant-ligatures:normal;font-variant-caps:normal;font-variant-numeric:normal;font-feature-settings:normal;text-align:start;writing-mode:lr-tb;direction:rtl;text-anchor:start;fill:#000000;fill-opacity:0.81818183;stroke-width:0.26458332"
         id="path819" />
      <path
         d="m 80.806082,98.555721 q 0.211667,-0.405694 0.599723,-0.723194 0.758472,-0.599722 1.5875,-0.08819 0.723194,0.723194 0.829027,2.363607 0.07056,1.18181 -0.15875,2.27542 1.710973,-4.639027 2.998612,-5.468055 0.335139,0.03528 0.635,0.176389 0.599722,0.299861 0.440972,0.881944 -0.458611,0.652639 -0.582083,3.439582 -0.141112,3.06917 0.846666,3.38667 0.846667,0.15875 1.287639,-0.67028 l 0.105833,0.19403 q -0.141111,0.52916 -0.511527,0.98778 -0.776111,0.89958 -1.993195,0.49388 -1.075972,-0.26458 -1.42875,-2.48708 -0.246944,-1.53458 -0.105833,-2.73403 -0.529167,0.77611 -1.252361,3.01625 -0.758473,2.34598 -1.11125,2.92806 -0.740834,-0.28222 -1.569861,-0.44097 0.899583,-5.69736 0.899583,-6.914447 0,-0.881945 -0.423333,-0.934862 -0.299862,-0.01764 -0.970139,0.440973 z"
         style="font-style:normal;font-variant:normal;font-weight:normal;font-stretch:normal;font-size:17.63888931px;line-height:2;font-family:'Rupster Script Free';-inkscape-font-specification:'Rupster Script Free, Normal';font-variant-ligatures:normal;font-variant-caps:normal;font-variant-numeric:normal;font-feature-settings:normal;text-align:start;writing-mode:lr-tb;direction:rtl;text-anchor:start;fill:#000000;fill-opacity:0.81818183;stroke-width:0.26458332"
         id="path821" />
      <path
         d="m 96.081358,98.238221 q 0,0.05292 -0.582084,0.05292 -0.740833,-0.01764 -1.305277,0.229306 -1.957917,0.829027 -2.345973,4.621386 -0.176389,2.01084 0.740834,1.905 0.687916,-0.0705 1.375833,-0.97014 0.934861,-1.21708 1.217083,-5.238746 l 1.164167,0.335139 q -0.264583,3.333747 -0.264583,3.968747 0,0.88195 0.546805,1.56986 0.687917,0.89959 1.640417,-0.49389 l 0.07056,0.0529 q -0.405695,1.49931 -1.499306,1.62278 -1.358194,0.15875 -1.640417,-1.28764 -0.141111,-0.72319 -0.01764,-1.46403 -0.388055,0.93486 -1.005416,1.74625 -1.217084,1.62278 -2.328334,1.02306 -1.799166,-0.98778 -1.922639,-3.13972 -0.105833,-1.86973 1.023056,-3.739449 1.11125,-1.852083 2.522361,-2.240138 1.5875,-0.423334 2.610556,1.446388 z"
         style="font-style:normal;font-variant:normal;font-weight:normal;font-stretch:normal;font-size:17.63888931px;line-height:2;font-family:'Rupster Script Free';-inkscape-font-specification:'Rupster Script Free, Normal';font-variant-ligatures:normal;font-variant-caps:normal;font-variant-numeric:normal;font-feature-settings:normal;text-align:start;writing-mode:lr-tb;direction:rtl;text-anchor:start;fill:#000000;fill-opacity:0.81818183;stroke-width:0.26458332"
         id="path823" />
      <path
         d="m 97.73939,93.140582 1.446388,-0.47625 q 0.370417,0.458612 0.458612,1.199445 0.176388,1.464028 -1.252362,2.804583 l -0.194027,-0.105833 q 0.246944,-0.335139 0.3175,-0.899583 0.176389,-1.128889 -0.582084,-2.240139 z"
         style="font-style:normal;font-variant:normal;font-weight:normal;font-stretch:normal;font-size:17.63888931px;line-height:2;font-family:'Rupster Script Free';-inkscape-font-specification:'Rupster Script Free, Normal';font-variant-ligatures:normal;font-variant-caps:normal;font-variant-numeric:normal;font-feature-settings:normal;text-align:start;writing-mode:lr-tb;direction:rtl;text-anchor:start;fill:#000000;fill-opacity:0.81818183;stroke-width:0.26458332"
         id="path825" />
      <path
         d="m 98.709501,105.45253 q 1.904999,-1.76389 2.822219,-3.61598 1.09361,-2.169579 1.3582,-5.362218 0.19403,-0.299861 0.56444,-0.529166 0.75847,-0.47625 1.72861,-0.15875 0.14111,0.03528 -0.12347,0.599722 -0.3175,0.687917 -0.3175,0.881945 0,0.829027 0.74083,1.799166 0.47625,-0.405694 1.27,-0.705555 0.21167,0 0.21167,0.194027 -0.74083,0.529167 -1.12889,0.9525 1.21709,1.516949 1.51695,2.116669 0.67027,1.37583 0.29986,2.87514 -0.15875,0.65264 -1.00542,1.12889 -0.81139,0.44097 -1.85208,0.51152 -1.09361,0.0882 -1.88736,-0.29986 -0.89959,-0.42333 -1.11125,-1.34055 -0.29986,-1.19945 0.91722,-2.82223 0.59972,-0.81138 1.27,-1.39347 -0.70556,-1.181803 -0.70556,-2.169581 -0.10583,1.234722 -1.16416,3.704171 -1.39348,3.24555 -3.051531,4.05694 -0.423334,-0.0529 -0.352778,-0.42333 z m 5.750279,-4.42736 q -0.65264,0.84666 -1.11125,1.76388 -0.89958,1.85209 0.17639,2.27542 0.93486,0.37042 1.60514,-0.35278 0.635,-0.67027 0.49389,-1.56986 -0.0706,-0.44097 -0.49389,-1.07597 -0.59973,-0.88194 -0.67028,-1.04069 z"
         style="font-style:normal;font-variant:normal;font-weight:normal;font-stretch:normal;font-size:17.63888931px;line-height:2;font-family:'Rupster Script Free';-inkscape-font-specification:'Rupster Script Free, Normal';font-variant-ligatures:normal;font-variant-caps:normal;font-variant-numeric:normal;font-feature-settings:normal;text-align:start;writing-mode:lr-tb;direction:rtl;text-anchor:start;fill:#000000;fill-opacity:0.81818183;stroke-width:0.26458332"
         id="path827" />
      <path
         d="m 120.33472,96.156832 q 2.29306,-1.11125 3.28084,-4.092222 0.38805,-1.181805 0.29986,-2.046111 -0.0882,-0.881944 -0.65264,-0.917222 -1.04069,-0.07056 -2.08139,3.386667 -0.93486,3.033888 -0.84667,3.668888 z m -0.0529,0.917223 q -0.42334,1.728611 -0.635,3.668885 -0.4057,3.88056 0.72319,4.95653 0.77611,0.74083 1.53459,-0.21167 0.70555,-0.89958 1.05833,-2.83986 0.24694,-1.35819 -0.42333,-2.681107 -0.58209,0.388057 -1.14653,-0.3175 -0.56445,-0.705556 -0.0882,-1.217084 0.7232,-0.776111 1.56987,-0.599722 0.81138,0.176389 1.34055,1.075972 0.68792,0.03528 1.07597,-0.405694 l 0.26459,0.529166 q -0.44098,0.299862 -1.05834,0.493889 0.635,1.76389 -0.21166,3.70417 -0.88195,2.09902 -2.06375,2.80458 -3.03389,1.86972 -4.09223,-1.09361 -0.91722,-2.57528 -0.0705,-7.390695 -2.69875,0.652639 -4.16278,-0.423334 -1.27,-0.9525 -1.09361,-2.681111 0.15875,-1.710972 1.5875,-2.769305 1.60514,-1.164167 3.93347,-0.652639 0.54681,0.652639 0.26458,2.240139 -0.0353,-0.08819 -0.72319,-0.105834 -0.77611,-0.01764 -1.53458,0.105834 -2.24014,0.388055 -2.34598,1.658055 -0.24694,2.998611 4.26862,1.658056 0.82902,-4.004028 2.39888,-6.632223 0.7232,-1.217083 2.13431,-1.446388 1.42875,-0.246945 2.2225,0.723194 1.28764,1.552222 -0.82903,4.674306 -2.04611,3.01625 -3.89819,3.175 z"
         style="font-style:normal;font-variant:normal;font-weight:normal;font-stretch:normal;font-size:17.63888931px;line-height:2;font-family:'Rupster Script Free';-inkscape-font-specification:'Rupster Script Free, Normal';font-variant-ligatures:normal;font-variant-caps:normal;font-variant-numeric:normal;font-feature-settings:normal;text-align:start;writing-mode:lr-tb;direction:rtl;text-anchor:start;fill:#000000;fill-opacity:0.81818183;stroke-width:0.26458332"
         id="path829" />
      <path
         d="m 131.6236,98.57336 q -0.67028,-0.299861 -1.4993,-0.08819 -1.6757,0.405694 -2.50473,2.928054 -0.47625,1.48167 -0.28222,2.50472 0.17639,0.89959 0.79375,1.23473 0.59972,0.3175 1.25236,0 0.68792,-0.35278 1.05834,-1.23473 0.68791,-1.62277 0.37041,-3.01625 -0.28222,-1.199441 -1.02305,-1.411107 l 1.4993,-0.705556 q 0.81139,0.9525 2.29306,0.705556 0.0705,0.141111 -0.0176,0.352777 -0.19403,0.38806 -0.98778,0.67028 0.22931,0.81139 -0.26458,2.08139 -0.51153,1.27 -1.42875,2.2225 -1.00542,1.04069 -2.06375,1.14652 -1.21709,0.14112 -2.20486,-1.07597 -0.70556,-0.93486 -0.74084,-2.8575 -0.0353,-2.18722 1.05834,-3.563053 1.28764,-1.605139 3.10444,-1.605139 0.88195,0 1.37583,0.423333 0.54681,0.493889 0.21167,1.287639 z"
         style="font-style:normal;font-variant:normal;font-weight:normal;font-stretch:normal;font-size:17.63888931px;line-height:2;font-family:'Rupster Script Free';-inkscape-font-specification:'Rupster Script Free, Normal';font-variant-ligatures:normal;font-variant-caps:normal;font-variant-numeric:normal;font-feature-settings:normal;text-align:start;writing-mode:lr-tb;direction:rtl;text-anchor:start;fill:#000000;fill-opacity:0.81818183;stroke-width:0.26458332"
         id="path831" />
      <path
         d="m 135.85691,88.466277 q 0.88195,1.516944 1.69334,1.675694 -1.74625,8.713612 -1.16417,10.812639 -0.0705,0.0176 0.29986,-0.61736 0.4057,-0.687917 0.93486,-1.428751 1.49931,-2.06375 2.18723,-2.099028 0.8643,-0.05292 1.09361,0.511528 0.10583,0.282222 0.0529,0.564445 -1.41111,6.402916 -0.24694,6.984996 0.84667,0.22931 1.67569,-1.16416 l 0.0529,0.17639 q -0.68792,1.46402 -1.49931,1.905 -1.19944,0.65263 -2.25777,-1.27 -0.88195,-1.62278 0.52916,-6.314726 -0.0882,-0.105834 -1.23472,1.42875 -1.48167,1.975556 -2.09903,4.885976 -0.40569,1.95791 -0.3175,2.27541 l -1.23472,-0.88194 q 0.0882,0.0529 0.77611,-8.484307 0.70556,-8.554862 0.59972,-8.978195 z"
         style="font-style:normal;font-variant:normal;font-weight:normal;font-stretch:normal;font-size:17.63888931px;line-height:2;font-family:'Rupster Script Free';-inkscape-font-specification:'Rupster Script Free, Normal';font-variant-ligatures:normal;font-variant-caps:normal;font-variant-numeric:normal;font-feature-settings:normal;text-align:start;writing-mode:lr-tb;direction:rtl;text-anchor:start;fill:#000000;fill-opacity:0.81818183;stroke-width:0.26458332"
         id="path833" />
      <path
         d="m 148.34523,98.57336 q -0.67027,-0.299861 -1.4993,-0.08819 -1.6757,0.405694 -2.50472,2.928054 -0.47625,1.48167 -0.28223,2.50472 0.17639,0.89959 0.79375,1.23473 0.59973,0.3175 1.25237,0 0.68791,-0.35278 1.05833,-1.23473 0.68792,-1.62277 0.37042,-3.01625 -0.28223,-1.199441 -1.02306,-1.411107 l 1.49931,-0.705556 q 0.81138,0.9525 2.29305,0.705556 0.0706,0.141111 -0.0176,0.352777 -0.19403,0.38806 -0.98778,0.67028 0.22931,0.81139 -0.26458,2.08139 -0.51153,1.27 -1.42875,2.2225 -1.00542,1.04069 -2.06375,1.14652 -1.21708,0.14112 -2.20486,-1.07597 -0.70556,-0.93486 -0.74083,-2.8575 -0.0353,-2.18722 1.05833,-3.563053 1.28764,-1.605139 3.10444,-1.605139 0.88195,0 1.37584,0.423333 0.5468,0.493889 0.21166,1.287639 z"
         style="font-style:normal;font-variant:normal;font-weight:normal;font-stretch:normal;font-size:17.63888931px;line-height:2;font-family:'Rupster Script Free';-inkscape-font-specification:'Rupster Script Free, Normal';font-variant-ligatures:normal;font-variant-caps:normal;font-variant-numeric:normal;font-feature-settings:normal;text-align:start;writing-mode:lr-tb;direction:rtl;text-anchor:start;fill:#000000;fill-opacity:0.81818183;stroke-width:0.26458332"
         id="path835" />
    </g>
  </g>
</svg>
